<?xml version="1.0" encoding="UTF-8"?>
<svg id="Layer_1" xmlns="http://www.w3.org/2000/svg" version="1.1" viewBox="0 0 24 24">
  <!-- Generator: Adobe Illustrator 29.1.0, SVG Export Plug-In . SVG Version: 2.1.0 Build 142)  -->
  <defs>
    <style>
      .st0 {
        fill: #fff;
      }
    </style>
  </defs>
  <polygon class="st0" points="7.3 6.5 15.1 17.8 16.7 17.8 9 6.5 7.3 6.5"/>
  <path class="st0" d="M12,0C5.4,0,0,5.4,0,12s5.4,12,12,12,12-5.4,12-12S18.6,0,12,0ZM16.7,18.7h-2.1l-.3-.4-3.2-4.7-4.3,5h-1.1l4.9-5.7-4-5.8-.9-1.4h3.9l.3.4,3,4.4,4.1-4.8h1.1l-4.7,5.5,4.2,6.1.9,1.4h-1.8Z"/>
</svg>