<?xml version="1.0" encoding="UTF-8"?>
<svg id="Layer_1" xmlns="http://www.w3.org/2000/svg" version="1.1" viewBox="0 0 24 24">
  <!-- Generator: Adobe Illustrator 29.0.1, SVG Export Plug-In . SVG Version: 2.1.0 Build 192)  -->
  <polygon points="7.3 6.5 15.1 17.8 16.7 17.8 9 6.5 7.3 6.5"/>
  <path d="M12,0C5.4,0,0,5.4,0,12s5.4,12,12,12,12-5.4,12-12S18.6,0,12,0ZM16.7,18.7h-1.6s-.5,0-.5,0l-.3-.4-3.2-4.7-4.3,5h-1.1s4.9-5.7,4.9-5.7l-4-5.8-.9-1.4h1.7s1.7,0,1.7,0h.5s.3.4.3.4l3,4.4,4.1-4.8h1.1s-4.7,5.5-4.7,5.5l4.2,6.1.9,1.4h-1.6Z"/>
</svg>