<?xml version="1.0" encoding="UTF-8"?>
<svg xmlns="http://www.w3.org/2000/svg" xmlns:xlink="http://www.w3.org/1999/xlink" version="1.1" viewBox="0 0 70 70">
  <!-- Generator: Adobe Illustrator 29.1.0, SVG Export Plug-In . SVG Version: 2.1.0 Build 142)  -->
  <defs>
    <style>
      .st0, .st1, .st2, .st3, .st4, .st5 {
        fill: none;
        stroke-miterlimit: 10;
      }

      .st0, .st5 {
        stroke: #231f20;
      }

      .st6 {
        font-size: 6px;
      }

      .st6, .st7, .st8, .st9, .st10, .st11 {
        fill: #231f20;
      }

      .st6, .st10 {
        font-family: Granville-Light, Granville;
        font-weight: 300;
      }

      .st12 {
        fill: #3d4f42;
      }

      .st1 {
        stroke: #3d4f42;
      }

      .st13 {
        fill: #f7a637;
      }

      .st14 {
        fill: #242825;
      }

      .st8 {
        font-family: MyriadPro-Regular, 'Myriad Pro';
        font-size: 6.5px;
      }

      .st9 {
        font-size: 7px;
      }

      .st9, .st11 {
        font-family: Inter-ExtraLight, Inter;
        font-weight: 200;
      }

      .st15 {
        fill: #f6b389;
      }

      .st2 {
        stroke-width: .5px;
      }

      .st2, .st3, .st4 {
        stroke: #fff;
      }

      .st16 {
        fill: #fff;
      }

      .st3 {
        stroke-width: .2px;
      }

      .st4, .st5 {
        stroke-width: .1px;
      }

      .st10 {
        font-size: 9.2px;
      }

      .st11 {
        font-size: 7.6px;
      }

      .st17 {
        display: none;
      }

      .st18 {
        fill: #e7e0db;
      }
    </style>
  </defs>
  <g id="Layer_1" class="st17">
    <rect class="st12" x="-108.6" y="-50" width="70" height="70"/>
    <circle class="st7" cx="214.8" cy="-149" r="18.9"/>
    <circle class="st7" cx="114.7" cy="-34" r="18.9"/>
    <g id="_x32_FjAAo">
      <image id="_x32_FjAAo1" data-name="_x32_FjAAo" width="2001" height="1125" transform="translate(-180.7 -251.4) scale(0)" xlink:href="vitality-logo-green-1.png"/>
    </g>
    <rect class="st12" x="6.4" y="-156.5" width="10.8" height="10.8"/>
    <rect class="st15" x="6.4" y="-143.4" width="10.8" height="10.8"/>
    <rect class="st13" x="6.4" y="-130.4" width="10.8" height="10.8"/>
    <rect class="st18" x="6.4" y="-117.4" width="10.8" height="10.8"/>
    <rect class="st14" x="6.4" y="-104.3" width="10.8" height="10.8"/>
    <text class="st8" transform="translate(20 -149.3)"><tspan x="0" y="0">#3D4F42</tspan></text>
    <text class="st8" transform="translate(20 -136)"><tspan x="0" y="0">#F6B389</tspan></text>
    <text class="st8" transform="translate(20 -123.1)"><tspan x="0" y="0">#F7A637</tspan></text>
    <text class="st8" transform="translate(20 -110.4)"><tspan x="0" y="0">#E7E0DB</tspan></text>
    <text class="st8" transform="translate(20 -97)"><tspan x="0" y="0">#231F20</tspan></text>
    <text class="st10" transform="translate(89.1 -149)"><tspan x="0" y="0">Heading Font</tspan></text>
    <text class="st6" transform="translate(95.5 -65)"><tspan x="0" y="0">Vibes</tspan></text>
    <text class="st6" transform="translate(93.9 -69.5)"><tspan x="0" y="0">Vitality</tspan></text>
    <text class="st11" transform="translate(88.9 -137.8)"><tspan x="0" y="0">Paragraph Text</tspan></text>
    <text class="st9" transform="translate(82.1 -123.9)"><tspan x="0" y="0">Lorem ipsum dolor sit </tspan><tspan x="0" y="8.4">amet, consectetuer </tspan><tspan x="0" y="16.8">adipiscing elit, sed diam </tspan><tspan x="0" y="25.2">nonummy nibh euismod </tspan><tspan x="0" y="33.6">tincidunt ut laoreet </tspan></text>
    <line class="st5" x1="94.5" y1="-69.5" x2="111.5" y2="-69.5"/>
    <line class="st5" x1="94.5" y1="-69.1" x2="111.5" y2="-69.1"/>
    <line class="st2" x1="114.5" y1="-23.9" x2="167.8" y2="-23.9"/>
    <line class="st3" x1="114.5" y1="-25" x2="167.8" y2="-25"/>
    <line class="st4" x1="122.4" y1="-26.1" x2="167.8" y2="-26.1"/>
    <line class="st4" x1="114.5" y1="-26.1" x2="120.5" y2="-26.1"/>
    <text class="st10" transform="translate(215.1 -73.8)"><tspan x="0" y="0">Vibes</tspan></text>
    <text class="st10" transform="translate(188.3 -75.7)"><tspan x="0" y="0">Vitality</tspan></text>
    <path class="st16" d="M114.4-23.6l-7.7-19.2h2.5l6.3,15.8,6.1-15.8h1l-7.5,19.2h-.7Z"/>
    <text class="st10" transform="translate(17.2 -69.5)"><tspan x="0" y="0">Vitality Vibes</tspan></text>
    <text class="st10" transform="translate(16.1 -54.3)"><tspan x="0" y="0">V</tspan></text>
    <text class="st10" transform="translate(17.2 -51.7)"><tspan x="0" y="0">V</tspan></text>
    <text class="st10" transform="translate(27.7 -54.3)"><tspan x="0" y="0">V</tspan></text>
    <text class="st10" transform="translate(27.1 -52.5)"><tspan x="0" y="0">V</tspan></text>
    <circle class="st7" cx="36.3" cy="-32.4" r="18.9"/>
    <circle class="st0" cx="36.3" cy="-32.4" r="21.2"/>
    <path class="st16" d="M36.1-22l-7.7-19.2h2.5l6.3,15.8,6.1-15.8h1l-7.5,19.2h-.7Z"/>
    <g>
      <line class="st2" x1="222.4" y1="-157.5" x2="207.1" y2="-157.5"/>
      <path class="st16" d="M214.5-138.6l-7.7-19.2h2.5l6.3,15.8,6.1-15.8h1l-7.5,19.2h-.7Z"/>
    </g>
    <path class="st7" d="M90.4-48.3l-2.5-6.1h.8l2,5,1.9-5h.3l-2.4,6.1h-.2Z"/>
    <path class="st7" d="M89.9-46.9l-2.5-6.1h.8l2,5,1.9-5h.3s-2.4,6.1-2.4,6.1h-.2Z"/>
    <line class="st5" x1="188.5" y1="-75.7" x2="217.1" y2="-75.7"/>
    <line class="st5" x1="209.9" y1="-80.5" x2="235.8" y2="-80.5"/>
    <circle class="st7" cx="84.4" cy="-73.2" r="6"/>
    <circle class="st7" cx="142.9" cy="-72.2" r="6"/>
    <circle class="st7" cx="121.4" cy="-78.4" r="6"/>
    <g>
      <path class="st16" d="M84.8-71l-2.5-6.1h.8l2,5,1.9-5h.3l-2.4,6.1h-.2Z"/>
      <path class="st16" d="M84.2-69.3l-2.5-6.1h.8l2,5,1.9-5h.3l-2.4,6.1h-.2Z"/>
    </g>
    <g>
      <path class="st16" d="M122-76.3l-2.5-6.1h.8l2,5,1.9-5h.3l-2.4,6.1h-.2Z"/>
      <path class="st16" d="M121.1-73.9l-2.5-6.1h.8l2,5,1.9-5h.3s-2.4,6.1-2.4,6.1h-.2Z"/>
    </g>
    <g>
      <path class="st16" d="M143.3-69.3l-2.5-6.1h.8l2,5,1.9-5h.3l-2.4,6.1h-.2Z"/>
      <path class="st16" d="M142.8-68l-2.5-6.1h.8l2,5,1.9-5h.3s-2.4,6.1-2.4,6.1h-.2Z"/>
    </g>
    <ellipse class="st13" cx="128.3" cy="-63" rx="7.1" ry="5.7"/>
    <g>
      <path class="st16" d="M128.8-60.8l-2.5-6.1h.8l2,5,1.9-5h.3l-2.4,6.1h-.2Z"/>
      <path class="st16" d="M128.1-59l-2.5-6.1h.8l2,5,1.9-5h.3l-2.4,6.1h-.2Z"/>
    </g>
    <polyline class="st4" points="122.4 -26.1 121.4 -27.1 120.4 -26.1"/>
    <polygon class="st16" points="165.7 -160.9 181.3 -161.2 173.8 -142 173.1 -142 165.7 -160.9"/>
  </g>
  <g id="Layer_2">
    <circle class="st1" cx="35" cy="35" r="16.1"/>
    <path class="st12" d="M35,20.6c-8,0-14.4,6.4-14.4,14.4s6.4,14.4,14.4,14.4,14.4-6.4,14.4-14.4-6.4-14.4-14.4-14.4ZM35.4,45.4h-.7l-7.7-19.2h2.5l6.3,15.8,6.1-15.8h1l-7.5,19.2Z"/>
  </g>
</svg>